<?xml version="1.0" encoding="UTF-8" standalone="no"?>
<!-- Created with Inkscape (http://www.inkscape.org/) -->

<svg
   xmlns:dc="http://purl.org/dc/elements/1.1/"
   xmlns:cc="http://creativecommons.org/ns#"
   xmlns:rdf="http://www.w3.org/1999/02/22-rdf-syntax-ns#"
   xmlns:svg="http://www.w3.org/2000/svg"
   xmlns="http://www.w3.org/2000/svg"
   xmlns:xlink="http://www.w3.org/1999/xlink"
   xmlns:sodipodi="http://sodipodi.sourceforge.net/DTD/sodipodi-0.dtd"
   xmlns:inkscape="http://www.inkscape.org/namespaces/inkscape"
   width="210mm"
   height="297mm"
   viewBox="0 0 210 297"
   version="1.1"
   id="svg8"
   inkscape:version="0.92.3 (2405546, 2018-03-11)"
   sodipodi:docname="Logo Iniciales 02.svg">
  <defs
     id="defs2">
    <linearGradient
       inkscape:collect="always"
       id="linearGradient4600">
      <stop
         style="stop-color:#000000;stop-opacity:1;"
         offset="0"
         id="stop4596" />
      <stop
         style="stop-color:#000000;stop-opacity:0;"
         offset="1"
         id="stop4598" />
    </linearGradient>
    <radialGradient
       inkscape:collect="always"
       xlink:href="#linearGradient4600"
       id="radialGradient4608"
       cx="230.7952"
       cy="655.17297"
       fx="230.7952"
       fy="655.17297"
       r="35.558872"
       gradientTransform="matrix(1,0,0,0.4304075,0,373.18163)"
       gradientUnits="userSpaceOnUse" />
    <radialGradient
       inkscape:collect="always"
       xlink:href="#linearGradient4600"
       id="radialGradient4610"
       gradientUnits="userSpaceOnUse"
       gradientTransform="matrix(1,0,0,0.4304075,0,373.18163)"
       cx="230.7952"
       cy="655.17297"
       fx="230.7952"
       fy="655.17297"
       r="35.558872" />
    <radialGradient
       inkscape:collect="always"
       xlink:href="#linearGradient4600"
       id="radialGradient4612"
       gradientUnits="userSpaceOnUse"
       gradientTransform="matrix(1,0,0,0.4304075,0,373.18163)"
       cx="230.7952"
       cy="655.17297"
       fx="230.7952"
       fy="655.17297"
       r="35.558872" />
    <radialGradient
       inkscape:collect="always"
       xlink:href="#linearGradient4600"
       id="radialGradient4628"
       gradientUnits="userSpaceOnUse"
       gradientTransform="matrix(1,0,0,0.4304075,0,373.18163)"
       cx="230.7952"
       cy="655.17297"
       fx="230.7952"
       fy="655.17297"
       r="35.558872" />
    <radialGradient
       inkscape:collect="always"
       xlink:href="#linearGradient4600"
       id="radialGradient4608-5"
       cx="230.7952"
       cy="655.17297"
       fx="230.7952"
       fy="655.17297"
       r="35.558872"
       gradientTransform="matrix(1,0,0,0.4304075,0,373.18163)"
       gradientUnits="userSpaceOnUse" />
    <radialGradient
       inkscape:collect="always"
       xlink:href="#linearGradient4600"
       id="radialGradient4612-9"
       gradientUnits="userSpaceOnUse"
       gradientTransform="matrix(1,0,0,0.4304075,0,373.18163)"
       cx="230.7952"
       cy="655.17297"
       fx="230.7952"
       fy="655.17297"
       r="35.558872" />
    <radialGradient
       inkscape:collect="always"
       xlink:href="#linearGradient4600"
       id="radialGradient4610-6"
       gradientUnits="userSpaceOnUse"
       gradientTransform="matrix(1,0,0,0.4304075,0,373.18163)"
       cx="230.7952"
       cy="655.17297"
       fx="230.7952"
       fy="655.17297"
       r="35.558872" />
    <radialGradient
       inkscape:collect="always"
       xlink:href="#linearGradient4600"
       id="radialGradient4705"
       gradientUnits="userSpaceOnUse"
       gradientTransform="matrix(1,0,0,0.4304075,0,373.18163)"
       cx="230.7952"
       cy="655.17297"
       fx="230.7952"
       fy="655.17297"
       r="35.558872" />
    <radialGradient
       inkscape:collect="always"
       xlink:href="#linearGradient4600"
       id="radialGradient4713"
       gradientUnits="userSpaceOnUse"
       gradientTransform="matrix(1,0,0,0.4304075,0,373.18163)"
       cx="230.7952"
       cy="655.17297"
       fx="230.7952"
       fy="655.17297"
       r="35.558872" />
    <radialGradient
       inkscape:collect="always"
       xlink:href="#linearGradient4600"
       id="radialGradient4802"
       gradientUnits="userSpaceOnUse"
       gradientTransform="matrix(1,0,0,0.4304075,0,373.18163)"
       cx="230.7952"
       cy="655.17297"
       fx="230.7952"
       fy="655.17297"
       r="35.558872" />
    <radialGradient
       inkscape:collect="always"
       xlink:href="#linearGradient4600"
       id="radialGradient4804"
       gradientUnits="userSpaceOnUse"
       gradientTransform="matrix(1,0,0,0.4304075,0,373.18163)"
       cx="230.7952"
       cy="655.17297"
       fx="230.7952"
       fy="655.17297"
       r="35.558872" />
  </defs>
  <sodipodi:namedview
     id="base"
     pagecolor="#ffffff"
     bordercolor="#666666"
     borderopacity="1.0"
     inkscape:pageopacity="0.0"
     inkscape:pageshadow="2"
     inkscape:zoom="0.35"
     inkscape:cx="907.9978"
     inkscape:cy="10.648902"
     inkscape:document-units="mm"
     inkscape:current-layer="layer1"
     showgrid="false"
     inkscape:window-width="1920"
     inkscape:window-height="1017"
     inkscape:window-x="-8"
     inkscape:window-y="-8"
     inkscape:window-maximized="1" />
  <metadata
     id="metadata5">
    <rdf:RDF>
      <cc:Work
         rdf:about="">
        <dc:format>image/svg+xml</dc:format>
        <dc:type
           rdf:resource="http://purl.org/dc/dcmitype/StillImage" />
        <dc:title />
      </cc:Work>
    </rdf:RDF>
  </metadata>
  <g
     inkscape:label="Capa 1"
     inkscape:groupmode="layer"
     id="layer1">
    <path
       id="path4715"
       transform="scale(0.26458333)"
       style="opacity:0.28000004;vector-effect:none;fill:#000000;fill-opacity:1;stroke:#bcd35f;stroke-width:0.37795275;stroke-linecap:butt;stroke-linejoin:miter;stroke-miterlimit:4;stroke-dasharray:none;stroke-dashoffset:0;stroke-opacity:1"
       d="m 143.74609,787.50781 c -0.24617,0.20026 -0.71172,0.585 -0.88867,0.72657 l 1.02539,-0.7168 c -0.0484,-2.2e-4 -0.0889,-0.009 -0.13672,-0.01 z" />
    <g
       id="g4800"
       transform="matrix(0.52765528,0,0,0.52765528,23.417378,29.187768)">
      <rect
         transform="rotate(-46.533486)"
         y="111.75133"
         x="-45.83255"
         height="60"
         width="60"
         id="rect4582"
         style="fill:#2a7fff;fill-rule:evenodd;stroke-width:0.17768557" />
      <flowRoot
         transform="matrix(0.84849767,-0.03232372,0.21589111,0.69160981,-431.18932,-330.30166)"
         style="font-style:normal;font-variant:normal;font-weight:normal;font-stretch:normal;font-size:40.00065613px;line-height:1.25;font-family:Mistral;-inkscape-font-specification:'Mistral, Normal';font-variant-ligatures:normal;font-variant-caps:normal;font-variant-numeric:normal;font-feature-settings:normal;text-align:end;letter-spacing:0px;word-spacing:0px;writing-mode:lr-tb;text-anchor:end;fill:#ececec;fill-opacity:1;stroke:url(#radialGradient4804)"
         id="flowRoot4584"
         xml:space="preserve"><flowRegion
           style="font-style:normal;font-variant:normal;font-weight:normal;font-stretch:normal;font-size:40.00065613px;font-family:Mistral;-inkscape-font-specification:'Mistral, Normal';font-variant-ligatures:normal;font-variant-caps:normal;font-variant-numeric:normal;font-feature-settings:normal;text-align:end;writing-mode:lr-tb;text-anchor:end;fill:#ececec;stroke:url(#radialGradient4612)"
           id="flowRegion4586"><rect
             style="font-style:normal;font-variant:normal;font-weight:normal;font-stretch:normal;font-size:40.00065613px;font-family:Mistral;-inkscape-font-specification:'Mistral, Normal';font-variant-ligatures:normal;font-variant-caps:normal;font-variant-numeric:normal;font-feature-settings:normal;text-align:end;writing-mode:lr-tb;text-anchor:end;fill:#ececec;stroke:url(#radialGradient4610)"
             y="633.94824"
             x="197.14285"
             height="111.42857"
             width="285.71429"
             id="rect4588" /></flowRegion><flowPara
           style="fill:#ececec;stroke:url(#radialGradient4802)"
           id="flowPara4626">JCRC</flowPara></flowRoot>      <flowRoot
         inkscape:transform-center-y="13.56506"
         inkscape:transform-center-x="0.58030949"
         transform="matrix(0.34939063,-0.00962585,0.08612098,0.25494764,-120.94033,-29.090382)"
         style="font-style:normal;font-variant:normal;font-weight:normal;font-stretch:normal;font-size:40.00026703px;line-height:1.25;font-family:Mistral;-inkscape-font-specification:'Mistral, Normal';font-variant-ligatures:normal;font-variant-caps:normal;font-variant-numeric:normal;font-feature-settings:normal;text-align:end;letter-spacing:0px;word-spacing:0px;writing-mode:lr-tb;text-anchor:end;fill:#e6e6e6;fill-opacity:1;stroke:url(#radialGradient4608-5)"
         id="flowRoot4584-2"
         xml:space="preserve"><flowRegion
           style="font-style:normal;font-variant:normal;font-weight:normal;font-stretch:normal;font-size:40.00026703px;font-family:Mistral;-inkscape-font-specification:'Mistral, Normal';font-variant-ligatures:normal;font-variant-caps:normal;font-variant-numeric:normal;font-feature-settings:normal;text-align:end;writing-mode:lr-tb;text-anchor:end;fill:#e6e6e6;stroke:url(#radialGradient4612-9)"
           id="flowRegion4586-7"><rect
             style="font-style:normal;font-variant:normal;font-weight:normal;font-stretch:normal;font-size:40.00026703px;font-family:Mistral;-inkscape-font-specification:'Mistral, Normal';font-variant-ligatures:normal;font-variant-caps:normal;font-variant-numeric:normal;font-feature-settings:normal;text-align:end;writing-mode:lr-tb;text-anchor:end;fill:#e6e6e6;stroke:url(#radialGradient4610-6)"
             y="633.94824"
             x="197.14285"
             height="111.42857"
             width="285.71429"
             id="rect4588-5" /></flowRegion><flowPara
           style="fill:#e6e6e6;stroke:url(#radialGradient4713)"
           id="flowPara4711">21</flowPara></flowRoot>      <path
         inkscape:connector-curvature="0"
         d="m 112.79353,118.32047 -43.97636,3.09302 c -0.04789,0.006 -0.101688,0.007 -0.152383,0.0104 L 65.7677,121.6278 c 5.602344,3.28919 10.793667,7.16474 16.806859,9.8675 0.738776,0.33207 1.118099,-1.07118 1.769335,-1.51823 0.83017,-0.56988 1.768815,-1.01169 2.653395,-1.51772 0.884583,-0.50603 1.730945,-1.06564 2.654003,-1.51825 2.898059,-1.42101 4.166386,-2.03376 4.717218,-2.28513 0.01155,-0.0122 0.0121,-0.0117 0.0254,-0.0259 0.064,-0.0194 0.08223,-0.0249 0.0883,-0.028 3.09e-4,-1.8e-4 0.0021,-2.7e-4 0.0024,-5.3e-4 1.91e-4,-1.1e-4 -1.62e-4,-5.3e-4 0,-5.3e-4 0.01331,-0.009 -0.08708,0.003 0.529713,-0.25842 0.187174,-0.0794 -0.07033,0.0479 -0.247322,0.14945 -0.02164,0.0177 -0.0665,0.0478 -0.145125,0.095 -0.006,0.0134 0.02149,0.0136 0.103402,-0.009 0.147195,-0.0402 0.291614,-0.0888 0.435987,-0.13698 0.154697,-0.21218 0.346295,-0.42555 0.500082,-0.57596 0.05962,-0.0583 0.15154,-0.0844 0.227363,-0.1266 0.207959,-0.0508 0.414573,-0.10752 0.623445,-0.15514 0.164098,-0.10597 0.39728,-0.12082 0.59199,-0.18628 -0.02802,0.0272 -0.113842,0.0986 -0.07316,0.0888 0.04652,-0.0112 0.127029,-0.11207 0.119126,-0.071 -0.02364,0.12241 -0.797717,0.83913 0.34467,-0.2942 1.817139,-0.89266 -0.574258,0.3154 0.589583,-0.16864 0.02197,-0.0299 0.07239,-0.0698 0.142106,-0.11571 0.0039,-0.0319 0.08967,-0.0716 0.191688,-0.11051 0.07639,-0.0414 0.176974,-0.0913 0.28602,-0.14375 0.05348,-0.0368 0.106956,-0.0739 0.160853,-0.10999 -0.0028,8.5e-4 -0.0057,0.002 -0.0085,0.003 -0.01661,0.005 0.05692,-0.0355 0.04288,-0.0266 -0.01155,0.008 -0.02302,0.0157 -0.03447,0.0234 0.08796,-0.0273 0.150281,-0.0501 0.227976,-0.0768 0.0359,-0.0777 0.07239,-0.15539 0.117917,-0.22883 0.0984,-0.15874 0.813466,-0.28581 1.364186,-0.38189 0.63433,-0.25464 1.37236,-0.54487 2.34499,-0.91582 0.0172,-0.007 6.98426,-1.49556 7.07674,-1.51824 0.96873,-0.2375 1.91351,-0.54277 2.86142,-0.83849 -0.0323,-0.0624 -0.0533,-0.12636 -0.0647,-0.19148 z m -16.547449,5.55822 c -0.203106,0.26228 -0.434675,0.67045 -0.303556,0.49916 0.119124,-0.1556 0.200473,-0.3346 0.303556,-0.49916 z m -0.342256,0.25736 c -0.04395,-0.006 -0.206747,0.0147 -0.274531,0.0139 -0.0825,0.0439 -0.205376,0.0565 -0.247924,0.13127 -0.01647,0.029 -0.02772,0.0644 -0.03809,0.10066 0.190197,-0.0688 0.376573,-0.14449 0.55692,-0.22985 0.01979,-0.009 0.01828,-0.0143 0.0037,-0.0161 z m -1.137428,0.5801 c -0.0889,-0.007 -0.264716,0.0115 -0.442634,0.0653 -0.05456,0.0165 -0.117403,0.0576 -0.180199,0.10429 -0.015,0.0152 -0.03317,0.0348 -0.04655,0.0483 0.724685,-0.11982 0.817582,-0.20554 0.669393,-0.21793 z m -0.669395,0.21793 c -0.0064,8.6e-4 -0.01406,0.002 -0.02057,0.003 -0.21427,0.17904 -0.312851,0.33048 0.02057,-0.003 z m -0.02057,0.003 c 0.02192,-0.0184 0.0445,-0.0345 0.06713,-0.0514 0.01573,-0.0159 0.03542,-0.0368 0.04896,-0.0503 -0.07067,0.0406 -0.119125,0.0695 -0.196528,0.11414 0.02496,-0.004 0.05497,-0.008 0.08042,-0.0124 z M 93.505,125.24726 c -0.04678,0.0233 -0.08928,0.0466 -0.114289,0.0658 -0.04759,0.0366 -0.142384,0.18062 -0.09796,0.14113 0.07446,-0.0662 0.143591,-0.13632 0.212248,-0.20703 z m -0.549061,0.32118 c -0.39646,0.25058 -0.610862,0.42354 -0.299928,0.35232 0.03031,-0.0385 0.05042,-0.0712 0.09192,-0.11623 0.08047,-0.0871 0.14633,-0.16499 0.208017,-0.23609 z"
         style="opacity:0.28000004;vector-effect:none;fill:#f2f2f2;fill-opacity:1;stroke:#bcd35f;stroke-width:0.10839462;stroke-linecap:butt;stroke-linejoin:miter;stroke-miterlimit:4;stroke-dasharray:none;stroke-dashoffset:0;stroke-opacity:1"
         id="path4717" />
    </g>
  </g>
</svg>
